<?xml version="1.0" encoding="UTF-8" standalone="no"?>
<!-- Created with Inkscape (http://www.inkscape.org/) -->

<svg
   xmlns:dc="http://purl.org/dc/elements/1.1/"
   xmlns:cc="http://creativecommons.org/ns#"
   xmlns:rdf="http://www.w3.org/1999/02/22-rdf-syntax-ns#"
   xmlns:svg="http://www.w3.org/2000/svg"
   xmlns="http://www.w3.org/2000/svg"
   xmlns:sodipodi="http://sodipodi.sourceforge.net/DTD/sodipodi-0.dtd"
   xmlns:inkscape="http://www.inkscape.org/namespaces/inkscape"
   width="200.36"
   height="200"
   id="svg2"
   version="1.1"
   inkscape:version="0.48.4 r9939"
   sodipodi:docname="dailylog.svg">
  <defs
     id="defs4" />
  <sodipodi:namedview
     id="base"
     pagecolor="#ffffff"
     bordercolor="#666666"
     borderopacity="1.0"
     inkscape:pageopacity="0.0"
     inkscape:pageshadow="2"
     inkscape:zoom="0.80702117"
     inkscape:cx="504.85914"
     inkscape:cy="141.23048"
     inkscape:document-units="px"
     inkscape:current-layer="layer1"
     showgrid="false"
     inkscape:window-width="1366"
     inkscape:window-height="744"
     inkscape:window-x="0"
     inkscape:window-y="24"
     inkscape:window-maximized="1"
     inkscape:snap-page="false" />
  <metadata
     id="metadata7">
    <rdf:RDF>
      <cc:Work
         rdf:about="">
        <dc:format>image/svg+xml</dc:format>
        <dc:type
           rdf:resource="http://purl.org/dc/dcmitype/StillImage" />
      </cc:Work>
    </rdf:RDF>
  </metadata>
  <g
     inkscape:label="Layer 1"
     inkscape:groupmode="layer"
     id="layer1"
     transform="translate(0,-852.36217)">
    <path
       inkscape:export-ydpi="90"
       inkscape:export-xdpi="90"
       inkscape:export-filename="/home/william/Desktop/clock.svg.png"
       inkscape:connector-curvature="0"
       id="path3044"
       style="fill:none;stroke:#df574b;stroke-width:5.99987507;stroke-linecap:butt;stroke-linejoin:miter;stroke-miterlimit:22.92560005;stroke-opacity:1;stroke-dasharray:none"
       d="m 186.62853,954.12194 c 0,48.53366 -39.3462,87.87866 -87.881104,87.87866 -48.535,0 -87.880199,-39.345 -87.880199,-87.87866 0,-48.53499 39.345199,-87.88125 87.880199,-87.88125 16.687504,0 32.288704,4.65125 45.577404,12.7275" />
    <path
       inkscape:export-ydpi="90"
       inkscape:export-xdpi="90"
       inkscape:export-filename="/home/william/Desktop/clock.svg.png"
       inkscape:connector-curvature="0"
       id="path3046"
       style="fill:#3faa96;fill-opacity:1;fill-rule:evenodd;stroke:none"
       d="m 98.747426,1026.1894 c 39.693604,0 72.068604,-32.37494 72.068604,-72.0687 0,-39.69375 -32.375,-72.06875 -72.068604,-72.06875 -39.6938,0 -72.068799,32.375 -72.068799,72.06875 0,39.69376 32.374999,72.0687 72.068799,72.0687" />
    <path
       inkscape:export-ydpi="90"
       inkscape:export-xdpi="90"
       inkscape:export-filename="/home/william/Desktop/clock.svg.png"
       inkscape:connector-curvature="0"
       id="path3048"
       style="fill:#df574b;fill-opacity:1;fill-rule:evenodd;stroke:none"
       d="m 141.30483,861.80069 11.8,22.42625 -25.3387,0.23625 13.5387,-22.6625" />
    <path
       inkscape:export-ydpi="90"
       inkscape:export-xdpi="90"
       inkscape:export-filename="/home/william/Desktop/clock.svg.png"
       inkscape:connector-curvature="0"
       id="path3050"
       style="fill:none;stroke:#3faa96;stroke-width:3.00012493;stroke-linecap:butt;stroke-linejoin:miter;stroke-miterlimit:22.92560005;stroke-opacity:1;stroke-dasharray:none"
       d="m 158.83243,887.66319 -5.4013,6 m 12.005,0.67375 -6,5.40125 m 11.8675,1.91125 -6.5312,4.74625 m 11.595,3.14625 -6.9925,4.03625 m 11.2112,4.33375 -7.3762,3.28375 m 10.7112,5.46875 -7.6787,2.49375 m 10.0937,6.57375 -7.8975,1.67875 m 9.3538,7.60501 -8.03,0.84375" />
    <path
       inkscape:export-ydpi="90"
       inkscape:export-xdpi="90"
       inkscape:export-filename="/home/william/Desktop/clock.svg.png"
       inkscape:connector-curvature="0"
       id="path3052"
       style="fill:#eeeeee;fill-opacity:1;fill-rule:nonzero;stroke:none"
       d="m 88.896126,970.56694 -25.1225,0 0,-4.83124 11.905,-12.76 c 1.7175,-1.975 2.9425,-3.63251 3.6675,-4.995 0.7238,-1.35375 1.0875,-2.61375 1.0875,-3.78 0,-1.54373 -0.4237,-2.8125 -1.2512,-3.80374 -0.8375,-0.98375 -2.02,-1.47501 -3.555,-1.47501 -1.6988,0 -2.9938,0.5775 -3.8825,1.73375 -0.88,1.1475 -1.32,2.6925 -1.32,4.6075 l -7.1775,0 -0.051,-0.14625 c -0.088,-3.32375 1,-6.135 3.2687,-8.43124 2.2688,-2.30251 5.3238,-3.44876 9.1625,-3.44876 3.7963,0 6.7725,0.98251 8.9388,2.95875 2.165,1.96626 3.2437,4.59875 3.2437,7.885 0,2.22626 -0.6125,4.27 -1.83,6.15125 -1.225,1.88 -3.2437,4.34751 -6.0562,7.3925 l -6.5475,7.15251 0.051,0.13 15.4687,0 0,5.65999" />
    <path
       inkscape:export-ydpi="90"
       inkscape:export-xdpi="90"
       inkscape:export-filename="/home/william/Desktop/clock.svg.png"
       inkscape:connector-curvature="0"
       id="path3054"
       style="fill:#eeeeee;fill-opacity:1;fill-rule:nonzero;stroke:none"
       d="m 103.51493,962.57695 -10.780004,0 -0.3275,-4.42499 11.107504,-17.74126 0,9.745 -4.231304,6.71124 4.231304,0 0,5.71001 z m 11.5912,-5.71001 4.1663,0 0,5.71001 -4.1663,0 0,7.99 -7.3587,0 0,-7.99 -4.2325,0 0,-5.71001 4.2325,0 0,-13.24374 -0.1475,-0.0525 -0.5863,1.03625 -3.4987,5.54875 0,-9.745 4.1637,-6.64749 7.4275,0 0,23.10375" />
    <path
       inkscape:export-ydpi="90"
       inkscape:export-xdpi="90"
       inkscape:export-filename="/home/william/Desktop/clock.svg.png"
       inkscape:connector-curvature="0"
       id="path3056"
       style="fill:#eeeeee;fill-opacity:1;fill-rule:nonzero;stroke:none"
       d="m 126.25971,942.26488 c 0.4825,-0.69875 1.0713,-1.23874 1.7663,-1.62874 0.6987,-0.39125 1.47,-0.59001 2.32,-0.59001 1.5912,0 2.84,0.53125 3.7525,1.59125 0.9062,1.0575 1.3587,2.6975 1.3587,4.91125 l 0,9.0725 -4.1225,0 0,-9.10125 c 0,-1.18625 -0.2125,-2.03 -0.6325,-2.5225 -0.415,-0.49624 -1.0412,-0.74374 -1.8712,-0.74374 -0.565,0 -1.0613,0.10251 -1.495,0.305 -0.4338,0.2025 -0.7913,0.48624 -1.0763,0.85375 l 0,11.20875 -4.1237,0 0,-22.04251 4.1237,0 0,8.68625" />
    <path
       d="m 186.62853,954.12194 c 0,48.53366 -39.3462,87.87866 -87.881104,87.87866 -48.535,0 -87.880199,-39.345 -87.880199,-87.87866 0,-48.53499 39.345199,-87.88125 87.880199,-87.88125 16.687504,0 32.288704,4.65125 45.577404,12.7275"
       style="fill:none;stroke:#df574b;stroke-width:5.99987507;stroke-linecap:butt;stroke-linejoin:miter;stroke-miterlimit:22.92560005;stroke-opacity:1;stroke-dasharray:none"
       id="path3105"
       inkscape:connector-curvature="0"
       inkscape:export-filename="/home/william/Desktop/clock.svg.png"
       inkscape:export-xdpi="90"
       inkscape:export-ydpi="90" />
    <path
       d="m 98.747426,1026.1894 c 39.693604,0 72.068604,-32.37494 72.068604,-72.0687 0,-39.69375 -32.375,-72.06875 -72.068604,-72.06875 -39.6938,0 -72.068799,32.375 -72.068799,72.06875 0,39.69376 32.374999,72.0687 72.068799,72.0687"
       style="fill:#3faa96;fill-opacity:1;fill-rule:evenodd;stroke:none"
       id="path3107"
       inkscape:connector-curvature="0"
       inkscape:export-filename="/home/william/Desktop/clock.svg.png"
       inkscape:export-xdpi="90"
       inkscape:export-ydpi="90" />
    <path
       d="m 141.30483,861.80069 11.8,22.42625 -25.3387,0.23625 13.5387,-22.6625"
       style="fill:#df574b;fill-opacity:1;fill-rule:evenodd;stroke:none"
       id="path3109"
       inkscape:connector-curvature="0"
       inkscape:export-filename="/home/william/Desktop/clock.svg.png"
       inkscape:export-xdpi="90"
       inkscape:export-ydpi="90" />
    <path
       d="m 158.83243,887.66319 -5.4013,6 m 12.005,0.67375 -6,5.40125 m 11.8675,1.91125 -6.5312,4.74625 m 11.595,3.14625 -6.9925,4.03625 m 11.2112,4.33375 -7.3762,3.28375 m 10.7112,5.46875 -7.6787,2.49375 m 10.0937,6.57375 -7.8975,1.67875 m 9.3538,7.60501 -8.03,0.84375"
       style="fill:none;stroke:#3faa96;stroke-width:3.00012493;stroke-linecap:butt;stroke-linejoin:miter;stroke-miterlimit:22.92560005;stroke-opacity:1;stroke-dasharray:none"
       id="path3111"
       inkscape:connector-curvature="0"
       inkscape:export-filename="/home/william/Desktop/clock.svg.png"
       inkscape:export-xdpi="90"
       inkscape:export-ydpi="90" />
    <path
       d="m 88.896126,970.56694 -25.1225,0 0,-4.83124 11.905,-12.76 c 1.7175,-1.975 2.9425,-3.63251 3.6675,-4.995 0.7238,-1.35375 1.0875,-2.61375 1.0875,-3.78 0,-1.54373 -0.4237,-2.8125 -1.2512,-3.80374 -0.8375,-0.98375 -2.02,-1.47501 -3.555,-1.47501 -1.6988,0 -2.9938,0.5775 -3.8825,1.73375 -0.88,1.1475 -1.32,2.6925 -1.32,4.6075 l -7.1775,0 -0.051,-0.14625 c -0.088,-3.32375 1,-6.135 3.2687,-8.43124 2.2688,-2.30251 5.3238,-3.44876 9.1625,-3.44876 3.7963,0 6.7725,0.98251 8.9388,2.95875 2.165,1.96626 3.2437,4.59875 3.2437,7.885 0,2.22626 -0.6125,4.27 -1.83,6.15125 -1.225,1.88 -3.2437,4.34751 -6.0562,7.3925 l -6.5475,7.15251 0.051,0.13 15.4687,0 0,5.65999"
       style="fill:#eeeeee;fill-opacity:1;fill-rule:nonzero;stroke:none"
       id="path3113"
       inkscape:connector-curvature="0"
       inkscape:export-filename="/home/william/Desktop/clock.svg.png"
       inkscape:export-xdpi="90"
       inkscape:export-ydpi="90" />
    <path
       d="m 103.51493,962.57695 -10.780004,0 -0.3275,-4.42499 11.107504,-17.74126 0,9.745 -4.231304,6.71124 4.231304,0 0,5.71001 z m 11.5912,-5.71001 4.1663,0 0,5.71001 -4.1663,0 0,7.99 -7.3587,0 0,-7.99 -4.2325,0 0,-5.71001 4.2325,0 0,-13.24374 -0.1475,-0.0525 -0.5863,1.03625 -3.4987,5.54875 0,-9.745 4.1637,-6.64749 7.4275,0 0,23.10375"
       style="fill:#eeeeee;fill-opacity:1;fill-rule:nonzero;stroke:none"
       id="path3115"
       inkscape:connector-curvature="0"
       inkscape:export-filename="/home/william/Desktop/clock.svg.png"
       inkscape:export-xdpi="90"
       inkscape:export-ydpi="90" />
    <path
       d="m 126.25971,942.26488 c 0.4825,-0.69875 1.0713,-1.23874 1.7663,-1.62874 0.6987,-0.39125 1.47,-0.59001 2.32,-0.59001 1.5912,0 2.84,0.53125 3.7525,1.59125 0.9062,1.0575 1.3587,2.6975 1.3587,4.91125 l 0,9.0725 -4.1225,0 0,-9.10125 c 0,-1.18625 -0.2125,-2.03 -0.6325,-2.5225 -0.415,-0.49624 -1.0412,-0.74374 -1.8712,-0.74374 -0.565,0 -1.0613,0.10251 -1.495,0.305 -0.4338,0.2025 -0.7913,0.48624 -1.0763,0.85375 l 0,11.20875 -4.1237,0 0,-22.04251 4.1237,0 0,8.68625"
       style="fill:#eeeeee;fill-opacity:1;fill-rule:nonzero;stroke:none"
       id="path3117"
       inkscape:connector-curvature="0"
       inkscape:export-filename="/home/william/Desktop/clock.svg.png"
       inkscape:export-xdpi="90"
       inkscape:export-ydpi="90" />
  </g>
</svg>
